<svg xmlns="http://www.w3.org/2000/svg" viewBox="0 0 4340.42 1870.03"><defs><style>.cls-1{fill:#fff;}</style></defs><g id="Capa_2" data-name="Capa 2"><g id="Capa_1-2" data-name="Capa 1"><path class="cls-1" d="M1410.2,1170q23,99.63,23,189.06t-23,189H1274.8V1849.6a668.27,668.27,0,0,1-106,16.59q-52.4,3.86-100.91,3.84-51.13,0-103.47-3.84a730.46,730.46,0,0,1-108.57-16.59V1548.14H43.44L0,1471.51,687.22,0A1034.53,1034.53,0,0,1,882.65,44.7q95.8,32,185.22,100.91L602.91,1170H855.83V883.92A734.52,734.52,0,0,1,964.4,867.31q52.32-3.82,103.47-3.82,48.51,0,100.91,3.82a671.8,671.8,0,0,1,106,16.61V1170Z"/><path class="cls-1" d="M2276.25,17.87q171.12,0,296.34,66.43T2779.52,267q81.75,116.26,120.07,274.63t38.33,342.32q0,183.95-40.88,339.77t-122.63,270.8q-81.78,115-209.48,180.11T2266,1739.75q-171.17,0-296.34-65.15T1764,1494.49q-80.47-115-120.08-270.8t-39.58-339.77q0-183.95,40.87-342.32T1767.86,267q81.75-116.22,208.21-182.67T2276.25,17.87Zm-5.11,385.77q-102.22,0-158.4,120.07t-56.2,360.21q0,237.58,57.49,357.66t157.11,120.07q97.05,0,153.28-120.07t56.2-357.66q0-240.1-56.2-360.21T2271.14,403.64Z"/><path class="cls-1" d="M3280.23,707.64q-23-33.17-46-76.63t-43.43-89.41a946.19,946.19,0,0,1-35.76-93.25,669.81,669.81,0,0,1-23-90.7L3880.57,38.31h109.87V1325.89h327q23,99.63,23,189,0,94.54-23,194.16H3224q-23-99.64-23-194.16,0-89.39,23-189h332.12V600.34Z"/></g></g></svg>