<svg xmlns="http://www.w3.org/2000/svg" viewBox="0 0 4306.32 1876.2"><defs><style>.cls-1{fill:#fff;}</style></defs><g id="Capa_2" data-name="Capa 2"><g id="Capa_1-2" data-name="Capa 1"><path class="cls-1" d="M1409.07,1169.11q23,99.56,23,188.9t-23,188.9H1273.79v301.21a668.64,668.64,0,0,1-105.94,16.59q-52.36,3.84-100.83,3.83-51.09,0-103.39-3.83a730.76,730.76,0,0,1-108.49-16.59V1546.91H43.4L0,1470.33,686.67,0A1033.71,1033.71,0,0,1,882,44.66q95.73,32,185.07,100.83L602.43,1169.11H855.14V883.22a732.14,732.14,0,0,1,108.49-16.6q52.29-3.82,103.39-3.82,48.46,0,100.83,3.82a669.82,669.82,0,0,1,105.94,16.6v285.89Z"/><path class="cls-1" d="M2274.43,17.86q171,0,296.11,66.37t206.77,182.52q81.66,116.17,120,274.42t38.29,342.05q0,183.78-40.84,339.49T2772.2,1493.3q-81.72,114.87-209.32,180t-298.66,65.09q-171,0-296.11-65.09t-205.49-180q-80.41-114.88-120-270.59t-39.55-339.49q0-183.81,40.84-342.05t122.52-274.42q81.67-116.11,208-182.52T2274.43,17.86Zm-5.1,385.46q-102.14,0-158.27,120T2054.9,883.22q0,237.38,57.44,357.37t157,120q97,0,153.16-120t56.15-357.37q0-239.91-56.15-359.93T2269.33,403.32Z"/><path class="cls-1" d="M3155.08,426.28q-23-99.55-23-194,0-91.89,23-191.44H4234.86l46,71.47-362.49,625.4q183.81,33.21,285.9,159.55t102.1,325.45q0,158.31-57.42,280.79T4090.63,1709q-100.87,82.92-237.39,125.08T3561,1876.2q-71.49,0-132.74-3.82A966.06,966.06,0,0,1,3307,1857.05q-60-11.49-120-28.08t-128.91-44.67q5.09-94.47,37-191.44t75.31-173.58q97,33.2,186.33,54.87t188.91,21.7q150.59,0,238.67-61.26t88.08-186.35q0-53.6-23-94.45a203.2,203.2,0,0,0-61.26-67.64q-38.29-26.81-86.79-40.84a366.56,366.56,0,0,0-102.1-14q-40.87,0-85.52,3.82t-103.39,19.15L3354.19,970l314-543.73Z"/></g></g></svg>