<svg xmlns="http://www.w3.org/2000/svg" viewBox="0 0 4462.79 1849.8"><defs><style>.cls-1{fill:#f2f2f2;}</style></defs><g id="Capa_2" data-name="Capa 2"><g id="Capa_1-2" data-name="Capa 1"><path class="cls-1" d="M-6344.85-579.69q22.74,98.55,22.74,187t-22.74,187h-133.93V92.51a660.88,660.88,0,0,1-104.87,16.42q-51.84,3.81-99.82,3.8-50.58,0-102.36-3.8a722.1,722.1,0,0,1-107.39-16.42V-205.68h-803.6l-43-75.8L-7060-1737.07a1022.63,1022.63,0,0,1,193.32,44.21q94.77,31.65,183.22,99.82L-7143.41-579.69h250.19v-283a723.47,723.47,0,0,1,107.39-16.43q51.77-3.79,102.36-3.79,48,0,99.82,3.79a662.06,662.06,0,0,1,104.87,16.43v283Z" transform="translate(7739.79 1737.07)"/><path class="cls-1" d="M-5488.17-1719.39q169.29,0,293.14,65.7t204.69,180.7q80.86,115,118.78,271.65t37.91,338.63q0,181.94-40.44,336.09t-121.3,267.87Q-5076.3-145-5202.61-80.59t-295.67,64.45q-169.32,0-293.14-64.45t-203.43-178.16q-79.6-113.73-118.77-267.87t-39.16-336.09q0-182,40.43-338.63T-5991-1473q80.85-115,205.95-180.7T-5488.17-1719.39Zm-5.05,381.59q-101.11,0-156.69,118.77t-55.59,356.32q0,235,56.87,353.78t155.41,118.77q96,0,151.62-118.77T-5286-862.71q0-237.51-55.59-356.32T-5493.22-1337.8Z" transform="translate(7739.79 1737.07)"/><path class="cls-1" d="M-3299.74-579.69q22.74,98.55,22.74,187t-22.74,187h-133.93V92.51a660.7,660.7,0,0,1-104.87,16.42q-51.84,3.81-99.82,3.8-50.58,0-102.36-3.8a722.1,722.1,0,0,1-107.39-16.42V-205.68h-803.6l-43-75.8,679.78-1455.59a1022.63,1022.63,0,0,1,193.32,44.21q94.78,31.65,183.22,99.82L-4098.29-579.69h250.18v-283a723.47,723.47,0,0,1,107.39-16.43q51.76-3.79,102.36-3.79,48,0,99.82,3.79a661.88,661.88,0,0,1,104.87,16.43v283Z" transform="translate(7739.79 1737.07)"/></g></g></svg>