<svg xmlns="http://www.w3.org/2000/svg" viewBox="0 0 4013 1820.02"><defs><style>.cls-1{fill:#fff;}</style></defs><g id="Capa_2" data-name="Capa 2"><g id="Capa_1-2" data-name="Capa 1"><path class="cls-1" d="M1091.5,22.54Q1114,127.68,1114,205.29q0,87.66-22.54,192.76H563.28l-5,260.37a196.85,196.85,0,0,1,42.57-5H648.4q122.63,0,225.3,35T1049,791.1q72.58,67.59,112.65,167.74t40.06,230.31q0,155.26-52.58,272.87T997.63,1659.79q-98.93,80.1-239.08,120.18t-312.93,40q-32.58,0-81.38-5t-108.89-13.77q-60.07-8.81-126.42-25A1280.74,1280.74,0,0,1,0,1737.4a607.79,607.79,0,0,1,13.77-98.89Q25,1587.24,40.05,1538.38t31.3-92.63a795.76,795.76,0,0,1,33.79-78.85q97.65,35.07,177.75,53.82t155.22,18.77q90.12,0,152.7-20T691,1368.14q37.56-31.28,53.83-72.59a233.76,233.76,0,0,0,16.27-86.37q0-95.11-67.59-152.72t-215.3-57.57q-60.07,0-128.93,13.77t-144,48.81l-65.09-42.55L177.74,22.54Z"/><path class="cls-1" d="M2070.32,0q167.7,0,290.4,65.09t202.78,179Q2643.6,358,2681.16,513.22t37.56,335.46q0,180.24-40.06,333T2558.49,1447q-80.14,112.65-205.28,176.5t-292.91,63.84q-167.75,0-290.4-63.84T1568.37,1447q-78.86-112.66-117.66-265.37t-38.79-333q0-180.27,40-335.46T1572.13,244.1q80.1-113.9,204-179T2070.32,0Zm-5,378q-100.17,0-155.22,117.66t-55.07,353q0,232.8,56.33,350.48t154,117.66q95.11,0,150.21-117.66t55.07-350.48q0-235.29-55.07-353T2065.31,378Z"/><path class="cls-1" d="M2858.9,1657.29l-30-72.6,445.61-585.8Q3389.61,843.67,3446,737.28t56.33-191.52q0-77.56-56.33-123.92t-156.47-46.31q-95.16,0-177.74,33.79t-147.7,71.35A1778.86,1778.86,0,0,1,2894,302.93a699,699,0,0,1-35-185.27q85.08-47.5,207.78-82.6T3344.57,0q127.68,0,236.58,30.05t189,91.37q80.09,61.38,125.17,154t45.07,220.31q0,90.12-22.54,170.24a929.13,929.13,0,0,1-57.58,152.7,1113.27,1113.27,0,0,1-78.86,137.69q-43.83,65.14-86.37,125.17l-142.7,200.29h438.11Q4013,1386.9,4013,1464.53q0,87.66-22.54,192.76Z"/></g></g></svg>