<svg xmlns="http://www.w3.org/2000/svg" viewBox="0 0 3892.7 1750.18"><defs><style>.cls-1{fill:#fff;}</style></defs><g id="Capa_2" data-name="Capa 2"><g id="Capa_1-2" data-name="Capa 1"><path class="cls-1" d="M1049.62,21.67q21.68,101.1,21.67,175.75,0,84.29-21.67,185.36H541.67l-4.82,250.37a189.92,189.92,0,0,1,40.93-4.81h45.74q117.91,0,216.66,33.69t168.52,98.71q69.79,65,108.33,161.3t38.52,221.48q0,149.31-50.56,262.4T959.35,1596.1q-95.13,77-229.9,115.57t-300.93,38.51q-31.32,0-78.25-4.81t-104.71-13.24q-57.78-8.46-121.57-24.08A1231.21,1231.21,0,0,1,0,1670.73a585,585,0,0,1,13.24-95.09q10.83-49.31,25.28-96.29t30.09-89.07a766.67,766.67,0,0,1,32.5-75.83Q195,1348.17,272,1366.2t149.27,18.06q86.65,0,146.84-19.26t96.3-49.35q36.1-30.09,51.77-69.82a224.78,224.78,0,0,0,15.64-83q0-91.46-65-146.86t-207-55.36q-57.76,0-124,13.24T197.4,1020.74l-62.59-40.92L170.92,21.67Z"/><path class="cls-1" d="M1990.88,0q161.26,0,279.25,62.59t195,172.14q77,109.56,113.15,258.8t36.12,322.59q0,173.32-38.52,320.17t-115.56,255.19q-77.07,108.33-197.41,169.72t-281.67,61.4q-161.29,0-279.25-61.4t-193.8-169.72q-75.82-108.35-113.15-255.19t-37.3-320.17q0-173.36,38.52-322.59t115.55-258.8q77-109.51,196.2-172.14T1990.88,0Zm-4.82,363.52q-96.32,0-149.26,113.15t-53,339.45q0,223.87,54.17,337t148,113.14q91.47,0,144.45-113.14t52.95-337q0-226.27-52.95-339.45T1986.06,363.52Z"/><path class="cls-1" d="M3786.77,21.67q21.69,101.1,21.68,175.75,0,84.29-21.68,185.36H3278.82L3274,633.15a190,190,0,0,1,40.94-4.81h45.73q117.91,0,216.66,33.69t168.52,98.71q69.81,65,108.34,161.3t38.51,221.48q0,149.31-50.55,262.4T3696.5,1596.1q-95.13,77-229.9,115.57t-300.93,38.51q-31.32,0-78.25-4.81t-104.71-13.24q-57.78-8.46-121.57-24.08a1232.78,1232.78,0,0,1-124-37.32,585,585,0,0,1,13.24-95.09q10.83-49.31,25.28-96.29t30.1-89.07a766.74,766.74,0,0,1,32.49-75.83q93.9,33.72,170.93,51.75t149.26,18.06q86.67,0,146.85-19.26t96.29-49.35q36.12-30.09,51.77-69.82a224.78,224.78,0,0,0,15.64-83q0-91.46-65-146.86t-207-55.36q-57.78,0-124,13.24t-138.42,46.94L2872,979.82l36.12-958.15Z"/></g></g></svg>