<?xml version="1.0" encoding="UTF-8"?>
<svg id="Capa_1" data-name="Capa 1" xmlns="http://www.w3.org/2000/svg" viewBox="0 0 301.11 197.52">
  <defs>
    <style>
      .cls-1 {
        fill: #b2282f;
      }

      .cls-1, .cls-2 {
        stroke-width: 0px;
      }

      .cls-2 {
        fill: #046241;
      }
    </style>
  </defs>
  <path class="cls-2" d="M193.19,158.09c2.07-.57,4.16-1.07,6.19-1.74,18.94-6.25,28.27-23.49,23.15-42.83-3.11-11.74-9.99-21.22-18.32-29.72-14.5-14.81-31.89-25.28-50.91-33.19-.96-.4-2.36-.45-3.3-.06-21.16,8.83-40.34,20.6-55.53,38.1-7.1,8.18-12.85,17.23-14.58,28.12-2.44,15.37,2.72,34.2,26.45,40.37,1.27.33,2.54.65,3.76,1.21-14.86,1.2-29.58,1.26-43.55-4.87-17.84-7.82-25.03-24.62-18.45-43,3.97-11.08,11.19-19.97,19.64-27.9,18.61-17.45,40.72-28.76,64.75-36.66.88-.29,1.75-.61,2.7-1.66-8.1-1.99-16.21-3.98-24.31-5.97,0-.15.02-.3.02-.45,7.9.41,15.82.68,23.7,1.29,5.17.4,10.3,1.48,15.47,1.88,2.58.2,5.23-.49,7.85-.71,11.42-.95,22.83-1.87,34.25-2.81.03.26.06.53.08.79-8.12,2-16.25,3.99-24.37,5.99.01.24.03.49.04.73,1.99.67,3.98,1.33,5.96,2.01,22.77,7.86,43.71,18.91,61.43,35.49,7.21,6.75,13.45,14.28,17.75,23.27,3.01,6.29,4.82,12.86,4.24,19.91-1.01,12.2-7.16,21.18-18.04,26.36-5.67,2.7-11.94,4.42-18.12,5.73-9.22,1.95-18.63,1.46-27.95.3Z"/>
  <path class="cls-1" d="M186.01,115.07c.08,19.2-15.32,34.71-34.46,34.69-19.02-.01-34.41-15.38-34.47-34.41-.06-19.07,15.23-34.57,34.19-34.67,19.22-.11,34.65,15.18,34.73,34.4Z"/>
</svg>