<?xml version="1.0" encoding="UTF-8"?>
<svg id="Capa_1" data-name="Capa 1" xmlns="http://www.w3.org/2000/svg" viewBox="0 0 301.11 197.52">
  <defs>
    <style>
      .cls-1 {
        fill: #ec1c2e;
        stroke-width: 0px;
      }
    </style>
  </defs>
  <path class="cls-1" d="M153.09,42.66c-.8,2.45-1.61,4.89-2.41,7.34-4.35,13.37-8.71,26.73-13.02,40.12-.36,1.11-.84,1.41-1.97,1.3-15.25-1.46-30.28-4.01-44.69-9.41-5.76-2.16-11.32-4.79-15.94-8.95-1.73-1.56-3.32-3.44-4.43-5.47-2.43-4.46-1.46-9.16,2.34-13.29,3.36-3.66,7.53-6.15,11.94-8.28,8.55-4.12,17.62-6.63,26.86-8.55,18.55-3.86,37.34-5.1,56.24-4.68,17.69.39,35.21,2.23,52.35,6.84,8.27,2.22,16.34,4.99,23.67,9.56,2.85,1.78,5.47,3.85,7.51,6.57,3.23,4.31,3.28,9.04.17,13.43-2.45,3.45-5.77,5.89-9.39,7.94-9.61,5.45-20.1,8.38-30.81,10.62-14.27,2.98-28.72,4.35-43.28,4.63-3.53.07-7.06.05-10.59.15-1.04.03-1.39-.36-1.44-1.35-.47-8.72-.97-17.43-1.46-26.15-.4-7.14-.79-14.28-1.19-21.42-.02-.3-.13-.59-.19-.89-.09-.01-.18-.02-.27-.03Z"/>
  <path class="cls-1" d="M136.55,93.55c-1.23,3.82-2.38,7.39-3.53,10.96-3.63,11.26-7.26,22.51-10.89,33.77-2.58,7.99-5.22,15.96-7.72,23.98-.47,1.49-1.24,1.32-2.38,1.18-9.28-1.11-18.45-2.8-27.43-5.38-8.73-2.51-17.18-5.71-24.84-10.71-3.33-2.17-6.35-4.68-8.8-7.84-5.25-6.79-5.14-14.26.32-20.91,3.6-4.38,8.17-7.54,13.12-10.18,8.62-4.61,17.85-7.54,27.33-9.75,14.3-3.34,28.83-4.78,43.49-5.1.36,0,.73,0,1.33,0Z"/>
  <path class="cls-1" d="M160.05,163.94c-1.31-23.38-2.61-46.54-3.92-69.86,2.36.2,4.57.34,6.77.57,9.75,1.05,19.4,2.63,28.87,5.21,9.08,2.47,17.88,5.62,25.92,10.62,4.13,2.57,7.88,5.57,10.64,9.66,4.18,6.2,3.95,13.08-.6,19.01-4,5.21-9.32,8.74-15.07,11.66-10.52,5.34-21.76,8.5-33.31,10.57-5.61,1.01-11.29,1.66-16.94,2.45-.72.1-1.46.07-2.35.11Z"/>
</svg>