<?xml version="1.0" encoding="UTF-8"?>
<svg id="Capa_1" data-name="Capa 1" xmlns="http://www.w3.org/2000/svg" viewBox="0 0 301.11 197.52">
  <defs>
    <style>
      .cls-1 {
        fill: #004481;
        stroke-width: 0px;
      }
    </style>
  </defs>
  <path class="cls-1" d="M75.77,100.64c4.46,1.81,7.75,4.93,9.08,9.63,1.82,6.45,1.34,12.73-2.71,18.34-2.62,3.62-6.44,5.54-10.7,6.43-2.79.58-5.66.96-8.51.99-10.49.11-20.97.05-31.46.04-1.49,0-1.78-.3-1.78-1.78,0-20.76,0-41.51,0-62.27,0-1.68.28-1.96,2-1.96,10.64,0,21.28-.02,31.92.01,3.71.01,7.3.71,10.57,2.55,5.57,3.14,8.41,7.94,8.56,14.34.09,3.83-.81,7.36-3.31,10.32-1.06,1.24-2.41,2.23-3.67,3.36ZM52.68,106.59c0-.06,0-.11,0-.17-3.39,0-6.78,0-10.18,0-1.56,0-1.97.41-1.97,1.97,0,5.4,0,10.79,0,16.19,0,1.64.37,2.01,2.01,2.02,6.48,0,12.95.04,19.43-.02,1.81-.02,3.64-.2,5.41-.53,3.34-.62,6.02-2.19,7.06-5.7.59-2.02.59-4.09.32-6.14-.43-3.24-2.16-5.56-5.29-6.61-1.5-.5-3.11-.9-4.68-.95-4.03-.13-8.07-.04-12.11-.04ZM52.7,96.9h0c1.73,0,3.45.03,5.18-.01,2.21-.05,4.45.02,6.63-.27,3.12-.42,5.67-1.83,6.86-5.01.57-1.54.65-3.14.46-4.74-.38-3.11-2-5.37-5.01-6.36-1.53-.5-3.17-.87-4.77-.89-6.59-.1-13.19-.06-19.78-.06-1.26,0-1.7.46-1.7,1.74,0,4.62,0,9.25,0,13.87,0,1.3.4,1.71,1.7,1.72,3.48,0,6.97,0,10.45,0Z"/>
  <path class="cls-1" d="M142.45,100.61c3.78,1.52,6.83,3.95,8.37,7.71,2.97,7.29,2.49,14.38-2.35,20.79-2.53,3.36-6.25,5.1-10.28,5.93-2.85.58-5.79.96-8.69.99-10.39.11-20.79.04-31.18.04-1.65,0-1.88-.22-1.88-1.87,0-20.76,0-41.51,0-62.27,0-1.56.32-1.87,1.92-1.87,10.7,0,21.4-.05,32.1.02,5.47.03,10.48,1.51,14.45,5.53,3.66,3.71,4.96,8.28,4.55,13.38-.27,3.34-1.39,6.39-3.74,8.85-.96,1.01-2.13,1.82-3.27,2.77ZM119.47,106.59c0-.06,0-.11,0-.17-3.39,0-6.78,0-10.17,0-1.58,0-1.99.39-1.99,1.94,0,5.43,0,10.85,0,16.28,0,1.57.39,1.95,1.98,1.95,6.47,0,12.95.04,19.42-.02,1.78-.02,3.57-.2,5.32-.51,4.28-.75,6.81-2.99,7.36-6.69.27-1.8.25-3.69.03-5.51-.36-3.03-2.09-5.19-5-6.18-1.59-.54-3.28-.98-4.94-1.05-4-.15-8.01-.05-12.01-.05ZM119.33,96.9c1.48,0,2.96,0,4.44,0,1.48,0,2.96.03,4.44,0,1.04-.03,2.09-.09,3.12-.24,4.27-.65,6.77-3.02,7.26-7.14.51-4.2-1.06-7.91-5.74-9.26-1.32-.38-2.72-.61-4.09-.63-6.56-.07-13.13-.04-19.69-.05-1.3,0-1.72.43-1.73,1.7,0,4.62,0,9.24,0,13.87,0,1.42.33,1.76,1.72,1.76,3.42,0,6.84,0,10.26,0Z"/>
  <path class="cls-1" d="M275.85,126.53c-1.54,0-3.09-.04-4.63.01-.96.03-1.51-.34-1.96-1.19-7.04-13.45-14.12-26.88-21.18-40.32-.31-.59-.63-1.16-1.39-1.18-.82-.02-1.14.59-1.47,1.21-7.03,13.39-14.07,26.77-21.08,40.16-.49.94-1.08,1.35-2.16,1.33-3.11-.06-6.23-.01-9.35-.02-1.34,0-1.69-.59-1.08-1.73,11.23-21.02,22.46-42.05,33.72-63.06.26-.49.76-.99,1.26-1.16.73-.25,1.13.39,1.45.99,3.21,6.03,6.43,12.07,9.65,18.1,8.01,14.99,16.02,29.99,24.03,44.98.72,1.34.4,1.88-1.11,1.89-1.57,0-3.15,0-4.72,0Z"/>
  <path class="cls-1" d="M159.57,70.06c1.51,0,3.02.04,4.53-.01.92-.03,1.47.33,1.9,1.14,5.06,9.68,10.15,19.36,15.24,29.03,1.99,3.79,3.99,7.57,5.98,11.36.31.6.63,1.15,1.4,1.16.78.01,1.1-.56,1.41-1.15,5.81-11.07,11.63-22.13,17.44-33.19,1.27-2.43,2.56-4.84,3.81-7.28.38-.75.91-1.07,1.76-1.07,3.15.03,6.29,0,9.44.01,1.54,0,1.88.57,1.15,1.94-4.88,9.12-9.76,18.24-14.63,27.37-6.31,11.81-12.61,23.63-18.93,35.44-.21.4-.46.83-.82,1.09-.65.48-1.4.13-1.91-.82-2.83-5.29-5.66-10.59-8.49-15.88-8.33-15.59-16.65-31.17-24.98-46.76-.15-.27-.3-.54-.42-.82-.42-.93-.08-1.52.95-1.54,1.73-.03,3.45,0,5.18,0Z"/>
</svg>