<?xml version="1.0" encoding="UTF-8"?>
<svg id="Capa_1" data-name="Capa 1" xmlns="http://www.w3.org/2000/svg" viewBox="0 0 301.11 197.52">
  <defs>
    <style>
      .cls-1 {
        fill: #01244c;
        stroke-width: 0px;
      }
    </style>
  </defs>
  <path class="cls-1" d="M185.1,98.13c.02,18.04-14.67,32.65-33.02,32.81-18.3.16-33.48-14.7-33.48-32.77,0-18.05,14.81-32.7,33.09-32.71,18.68-.01,33.39,14.37,33.42,32.67Z"/>
  <path class="cls-1" d="M151.85,22.97c0,1.61,0,2.97,0,4.33,0,10.02-.04,20.05.03,30.07.02,1.99-.5,2.86-2.66,3.09-17.69,1.9-29.37,11.23-34.6,28.38-.12.4-.34.77-.92,2.04,0-17.62.28-34.27-.16-50.9-.15-5.54,1.51-8.29,6.61-10.36,10.06-4.09,20.33-6.46,31.68-6.65Z"/>
  <path class="cls-1" d="M190.62,97.89c-1.58-19.22-11.75-31.25-29.69-37.25,2.85,0,5.7,0,8.55,0,15.14,0,30.28.07,45.42-.06,2.61-.02,3.94.89,5.09,3.15,5.39,10.66,8.36,21.87,8.4,34.16h-37.75Z"/>
  <path class="cls-1" d="M190.06,107.21c0,3.24,0,6.49,0,9.73,0,14.45-.06,28.9.05,43.36.02,2.57-.76,3.91-3.11,5.07-10.19,5.04-20.92,7.77-32.24,8.28-.78.03-1.56,0-2.61,0v-37.35c18.81-1.56,31.52-10.9,37.91-29.09Z"/>
  <path class="cls-1" d="M142.54,135.71c-1.47,0-2.93,0-4.4,0-16.53,0-33.07.04-49.6-.1-1.44-.01-3.57-.87-4.2-1.99-6.01-10.76-8.87-22.4-9.03-35.05h37.85c1.54,18.72,11.43,30.96,29.38,37.14Z"/>
</svg>