<?xml version="1.0" encoding="UTF-8"?>
<svg id="Capa_1" data-name="Capa 1" xmlns="http://www.w3.org/2000/svg" version="1.1" viewBox="0 0 123.5 21">
  <defs>
    <style>
      .cls-1 {
        fill: #6d6e76;
      }

      .cls-1, .cls-2, .cls-3 {
        stroke-width: 0px;
      }

      .cls-2 {
        fill: #b82423;
      }

      .cls-3 {
        fill: #1a643b;
      }
    </style>
  </defs>
  <path class="cls-2" d="M12.6,8c-2,0-3.7,1.7-3.7,3.7s1.7,3.7,3.7,3.7,3.7-1.7,3.7-3.7-1.7-3.7-3.7-3.7"/>
  <path class="cls-3" d="M14.5,4.3s0,0-.2,0c.9-.3,1.9-.5,3.1-.7-1.7,0-3.1,0-4.3.3-.2,0-.3,0-.5,0-.2,0-.3,0-.5,0-1.2-.2-2.6-.3-4.3-.3,1.2.2,2.3.5,3.1.7-.2,0-.2,0-.2,0C5.1,6,1,9.8,1.3,12.9c.2,2.6,2.9,3.9,7.1,3.4-2.4-.4-3.3-1.6-3.5-3.4-.3-2.8,2.9-6.1,7.4-8,0,0,.1,0,.3-.1.2,0,.3.1.3.1,4.5,1.9,7.6,5.2,7.4,8-.2,1.8-1.1,3-3.5,3.4,4.3.4,6.9-.9,7.1-3.4.3-3.1-3.9-6.9-9.4-8.6"/>
  <g>
    <path class="cls-1" d="M32.9,11h0c1.6-.2,2.7-1.3,2.7-2.6s-1.8-2.3-2.9-2.3h-4.6l-2.1,10.2h4.7c2.3,0,4.2-1.1,4.2-3.3s-.8-1.8-2-2M29.9,14.3h-.7l.5-2.4h.7c1.2,0,1.9.1,1.9,1s-.9,1.4-2.3,1.4M31.1,10.1h-1l.4-2.1h.7c1,0,1.7.1,1.7,1s-.7,1.2-1.8,1.2"/>
    <path class="cls-1" d="M40.3,8.4c-1.2,0-2,.2-2.8.4l-.3,1.9c.9-.5,1.5-.6,2.5-.6s1.4.4,1.4,1,0,.2,0,.3c-.4,0-.9,0-1.4,0-2.3,0-4.2.9-4.2,2.8s.9,2.2,2.6,2.2,2-.4,2.6-1.2h0s0,0,0,0v1.1c-.1,0,2,0,2,0,.3-2.3,1-4,1-5.2,0-1.9-1.5-2.6-3.3-2.6M38.9,14.7c-.6,0-.9-.4-.9-.8,0-.7.9-1.1,2.2-1.1.2,0,.5,0,.7,0-.2,1-.9,1.8-2,1.8"/>
    <path class="cls-1" d="M50.7,8.4c-1.4,0-2.2.6-3,1.4h0l.2-1.2h-2.5c0,.7-.2,1.3-.3,2l-1.2,5.7h2.6l.7-3.5c.2-1.1.9-2.1,2-2.1.7,0,1,.4,1,.9s-.1.8-.2,1.2l-.7,3.6h2.7l.7-3.6c.2-.8.2-1.1.2-1.6,0-1.5-.8-2.6-2.4-2.6"/>
    <path class="cls-1" d="M58.8,10.4c.6,0,1.2.2,1.7.4l.6-1.8c-.8-.3-1.8-.5-2.4-.5-2.9,0-4.9,2-4.9,4.5s1.4,3.5,3.6,3.5,1.7-.1,2.3-.3l.4-2c-.6.2-1,.3-1.7.3-1.1,0-1.8-.7-1.8-1.7,0-1.6,1-2.5,2.3-2.5"/>
    <path class="cls-1" d="M65.6,8.4c-3,0-4.9,1.8-4.9,4.5s1.1,3.5,4,3.5,4.9-1.4,4.9-4.6-1.4-3.4-4-3.4M64.9,14.6c-.9,0-1.4-.7-1.4-1.7s.8-2.6,2.1-2.6,1.4.7,1.4,1.5c0,1.7-.8,2.8-2,2.8"/>
    <path class="cls-1" d="M78.2,6l-6.1,10.3h3l1.2-2.2h4l.3,2.2h2.8l-1.7-10.3h-3.4ZM77.3,12.1l2.2-4h0l.4,4h-2.6Z"/>
    <polygon class="cls-1" points="84.8 10.5 88.1 10.5 83.9 14.3 83.5 16.3 90.2 16.3 90.6 14.3 87.1 14.3 91.3 10.6 91.7 8.6 85.2 8.6 84.8 10.5"/>
    <path class="cls-1" d="M95.8,10.4h1.9l.3-1.9h-1.8l.5-2.4-2.8.8-.4,1.6h-1.5l-.3,1.9h1.4l-.5,2.1c-.2.8-.2,1.2-.2,1.6,0,1.6,1.1,2.3,2.4,2.3s1.1,0,1.6-.1l.3-1.7c-.3.1-.6.2-.9.2-.5,0-.9-.3-.9-.9s.1-.8.2-1.3l.5-2.1Z"/>
    <path class="cls-1" d="M102.4,8.4c-3.4,0-4.6,2.7-4.6,4.5s1.4,3.5,3.9,3.5,1.7-.1,2.7-.4l.3-1.9c-.7.4-1.7.5-2.4.5-1.6,0-2-.6-2.1-1.5h5.4c.1-.5.2-1.1.2-1.4,0-2.3-1.5-3.3-3.5-3.3M100.4,11.7c.2-.7.8-1.5,2-1.5s1.3.7,1.3,1.5h-3.2Z"/>
    <path class="cls-1" d="M111.6,10.4c.6,0,1.2.2,1.7.4l.6-1.8c-.8-.3-1.8-.5-2.4-.5-2.9,0-4.9,2-4.9,4.5s1.4,3.5,3.6,3.5,1.7-.1,2.3-.3l.4-2c-.6.2-1,.3-1.7.3-1.1,0-1.8-.7-1.8-1.7,0-1.6,1-2.5,2.3-2.5"/>
    <path class="cls-1" d="M118.3,8.4c-1.2,0-2,.2-2.8.4l-.3,1.9c.9-.5,1.5-.6,2.5-.6s1.4.4,1.4,1,0,.2,0,.3c-.4,0-.9,0-1.4,0-2.3,0-4.2.9-4.2,2.8s.9,2.2,2.6,2.2,2-.4,2.6-1.2h0s0,0,0,0v1.1c-.1,0,2,0,2,0,.3-2.3,1-4,1-5.2,0-1.9-1.5-2.6-3.3-2.6M116.8,14.7c-.6,0-.9-.4-.9-.8,0-.7.9-1.1,2.2-1.1.2,0,.5,0,.7,0-.2,1-.9,1.8-2,1.8"/>
  </g>
</svg>