<svg xmlns="http://www.w3.org/2000/svg" height="24" viewBox="0 -960 960 960" width="24"><path d="M480.417-294.039q11.544 0 19.756-8.221 8.211-8.221 8.211-19.855v-169.193q0-11.414-8.239-19.649-8.24-8.235-19.658-8.235-11.641 0-19.852 8.235t-8.211 19.649v169.193q0 11.634 8.225 19.855 8.224 8.221 19.768 8.221Zm-.522-291.191q13.22 0 22.008-8.683 8.789-8.683 8.789-21.903 0-13.221-8.683-22.009-8.683-8.789-21.904-8.789-13.22 0-22.008 8.684-8.789 8.683-8.789 21.903 0 13.22 8.683 22.009 8.683 8.788 21.904 8.788Zm.197 477.152q-77.152 0-145.066-29.325-67.914-29.324-118.152-79.595-50.238-50.27-79.517-118.055-29.279-67.785-29.279-144.855 0-77.152 29.325-145.066 29.324-67.914 79.595-118.152 50.27-50.238 118.055-79.517 67.785-29.279 144.855-29.279 77.152 0 145.066 29.325 67.914 29.324 118.152 79.595 50.238 50.27 79.517 118.055 29.279 67.785 29.279 144.855 0 77.152-29.325 145.066-29.324 67.914-79.595 118.152-50.27 50.238-118.055 79.517-67.785 29.279-144.855 29.279Zm-.105-55.96q131.898 0 223.936-92.026 92.039-92.026 92.039-223.923 0-131.898-92.026-223.936-92.026-92.039-223.923-92.039-131.898 0-223.936 92.026-92.039 92.026-92.039 223.923 0 131.898 92.026 223.936 92.026 92.039 223.923 92.039ZM480-480Z"/></svg>