<svg xmlns="http://www.w3.org/2000/svg" height="20" viewBox="0 -960 960 960" width="20"><path d="M192-228v-60l72-72v132q0 15.3-10.289 25.65-10.29 10.35-25.5 10.35Q213-192 202.5-202.35 192-212.7 192-228Zm126 0v-186l66-66 6 6v246.061Q390-213 379.711-202.5q-10.29 10.5-25.5 10.5Q339-192 328.5-202.35 318-212.7 318-228Zm126 0v-192l72 72v120q0 15.3-10.289 25.65-10.29 10.35-25.5 10.35Q465-192 454.5-202.35 444-212.7 444-228Zm126 0v-150l72-72v222q0 15.3-10.289 25.65-10.29 10.35-25.5 10.35Q591-192 580.5-202.35 570-212.7 570-228Zm126 0v-276l72-72v348q0 15.3-10.289 25.65-10.29 10.35-25.5 10.35Q717-192 706.5-202.35 696-212.7 696-228ZM203-491l130-130q21-21 51-21t50.81 20.81L528-528l178-178q11-11 26-11t26.478 11Q769-695 768.5-680.5T757-655L579-477q-21 21-51 21t-50.81-20.81L384-570 254-440q-11 11-26 11t-26.478-11Q191-451 191.5-465.5T203-491Z"/></svg>