<svg xmlns="http://www.w3.org/2000/svg" height="24" viewBox="0 -960 960 960" width="24"><path d="m438.808-435.768-65.232-65.116q-8.307-8.115-19.711-8.308-11.403-.192-20.018 8.423-8.693 8.692-8.693 19.961 0 11.269 8.693 19.769l80.961 80.961q10.346 10.539 24.017 10.539T463-380.078l163.308-163.308q8.461-8.46 8.499-19.71.039-11.25-8.461-20.057-8.808-8.616-20.019-8.769-11.211-.154-20.034 8.668L438.808-435.768Zm-98.384 315.305-54.5-91.692-103.807-22.154q-12.648-2.642-20.286-13.292-7.637-10.65-6.022-23.746l10.231-106.052-69.846-80.217q-8.423-9.346-8.423-22.403 0-13.057 8.423-22.558l69.846-80.133-10.231-105.943q-1.615-13.106 6.019-23.764 7.635-10.659 20.289-13.467l103.807-21.961 54.5-91.884q6.923-11.039 18.762-15.25 11.84-4.212 23.814.904l97 41.692 97-41.692q11.974-5.116 23.814-.904 11.839 4.211 18.762 15.25l54.5 91.884 103.807 21.961q12.654 2.808 20.289 13.467 7.634 10.658 6.019 23.764L793.96-582.71l70.038 80.133q8.231 9.501 8.231 22.558t-8.283 22.444l-69.986 80.199 10.231 106.029q1.615 13.096-6.022 23.746-7.638 10.65-20.286 13.292l-103.807 22.154-54.5 91.692q-6.923 11.231-18.762 15.442-11.84 4.212-23.814-.904l-97-41.692-97 41.692q-11.974 5.116-23.814.904-11.839-4.211-18.762-15.442Zm39.191-45.575L480-208.461l101.615 42.423 56.77-94.385 108.364-25.298-10.033-111.061L809.962-480l-73.246-84.454 10.033-111.061-108.364-24.062-58-94.385L480-751.539l-101.615-42.423-56.77 94.385-108.364 24.062 10.033 111.061L150.038-480l73.246 83.218-10.033 112.297 108.364 24.062 58 94.385ZM480-480Z"/></svg>