<?xml version="1.0" encoding="UTF-8"?>
<svg xmlns="http://www.w3.org/2000/svg" version="1.1" viewBox="0 0 186.1 40.2">
  <defs>
    <style>
      .cls-1, .cls-2 {
        fill-rule: evenodd;
      }

      .cls-1, .cls-3 {
        fill: #022a9b;
      }

      .cls-2, .cls-4 {
        fill: #ff5874;
      }
    </style>
  </defs>
  <!-- Generator: Adobe Illustrator 28.6.0, SVG Export Plug-In . SVG Version: 1.2.0 Build 709)  -->
  <g>
    <g id="Layer_1">
      <g>
        <polygon class="cls-1" points="31.6 14.2 26.2 14.2 26.2 28.1 25.9 30.4 25.1 32 23.8 33.2 22.1 34 20 34.2 18.1 34 16.5 33.3 15.3 32.1 14.6 30.4 14.3 28.1 14.3 14.2 8.9 14.2 8.9 29.9 9.1 31.7 9.5 33.4 10.3 34.9 11.3 36.2 12.6 37.3 14.1 38.2 15.9 38.8 17.8 39.2 20 39.4 22.3 39.3 24.3 38.9 26.1 38.3 27.7 37.5 29 36.4 30.1 35.2 30.9 33.6 31.4 31.9 31.6 29.9 31.6 14.2"/>
        <polygon class="cls-1" points="64.2 33.6 63.7 33.6 62.8 33.4 62.1 32.9 61.6 32.2 61.5 31.3 61.5 18.7 61.5 17.9 61.5 14.1 56 14.1 56 17.9 56 26.4 55.8 28.2 55.3 29.9 54.4 31.3 53.2 32.5 51.8 33.4 50.2 33.9 48.4 34.1 46.6 33.9 45 33.4 43.5 32.5 42.4 31.3 41.5 29.9 40.9 28.2 40.7 26.4 40.9 24.6 41.5 23 42.4 21.6 43.5 20.4 45 19.5 46.6 18.9 48.4 18.7 50.2 18.9 51.8 19.5 53.2 20.4 54.4 21.6 55.3 23 55.8 24.6 56 26.4 56 17.9 54.7 16.4 53.2 15.2 51.4 14.3 49.5 13.7 47.3 13.5 45.5 13.6 43.7 14 42.1 14.7 40.6 15.5 39.3 16.6 38.1 17.9 37.1 19.3 36.3 20.9 35.7 22.6 35.3 24.5 35.2 26.4 35.3 28.4 35.7 30.2 36.3 32 37.1 33.6 38.1 35 39.3 36.3 40.6 37.3 42.1 38.2 43.7 38.8 45.5 39.2 47.3 39.4 49.5 39.2 51.5 38.5 53.4 37.6 54.9 36.2 56.3 34.6 57.1 36.4 58.4 37.7 60.3 38.5 62.6 38.8 64.2 38.8 64.2 34.6 64.2 34.1 64.2 33.6"/>
        <rect class="cls-3" x="68.6" y=".8" width="5.8" height="38"/>
        <polygon class="cls-1" points="101.5 .8 96.7 .8 96.3 2.8 95.2 4.5 93.6 5.6 91.5 6 91.5 10.8 93.3 10.6 95 10.1 96.6 9.3 97.9 8.4 99.1 7.2 100.1 5.8 100.9 4.3 101.3 2.6 101.5 .8"/>
        <polygon class="cls-1" points="107.3 33.6 106.9 33.6 105.9 33.4 105.2 32.9 104.7 32.2 104.6 31.3 104.6 18.7 104.6 17.9 104.6 14.1 99.1 14.1 99.1 17.9 99.1 26.4 98.9 28.2 98.4 29.9 97.5 31.3 96.4 32.5 94.9 33.4 93.3 33.9 91.5 34.1 89.7 33.9 88.1 33.4 86.7 32.5 85.5 31.3 84.6 29.9 84.1 28.2 83.9 26.4 84.1 24.6 84.6 23 85.5 21.6 86.7 20.4 88.1 19.5 89.7 18.9 91.5 18.7 93.3 18.9 94.9 19.5 96.4 20.4 97.5 21.6 98.4 23 98.9 24.6 99.1 26.4 99.1 17.9 97.8 16.4 96.3 15.2 94.5 14.3 92.6 13.7 90.5 13.5 88.6 13.6 86.8 14 85.2 14.7 83.7 15.5 82.4 16.6 81.2 17.9 80.2 19.3 79.4 20.9 78.8 22.6 78.4 24.5 78.3 26.4 78.4 28.4 78.8 30.2 79.4 32 80.2 33.6 81.2 35 82.4 36.3 83.7 37.3 85.2 38.2 86.8 38.8 88.6 39.2 90.5 39.4 92.7 39.2 94.7 38.5 96.5 37.6 98.1 36.2 99.4 34.6 100.2 36.4 101.5 37.7 103.4 38.5 105.7 38.8 107.3 38.8 107.3 34.6 107.3 34.1 107.3 33.6"/>
        <polygon class="cls-2" points="141.2 26.4 141.1 24.5 140.7 22.6 140.1 20.9 139.3 19.3 138.4 17.9 137.1 16.6 135.8 15.5 135.6 15.4 135.6 26.4 135.4 28.2 134.9 29.9 134 31.3 132.8 32.5 131.4 33.4 129.8 33.9 128 34.1 126.2 33.9 124.6 33.4 123.1 32.5 122 31.3 121.1 29.9 120.5 28.2 120.3 26.4 120.5 24.6 121.1 23 122 21.6 123.1 20.4 124.6 19.5 126.2 18.9 128 18.7 129.8 18.9 131.4 19.5 132.8 20.4 134 21.6 134.9 23 135.4 24.6 135.6 26.4 135.6 15.4 134.3 14.7 132.7 14 130.9 13.6 129.1 13.5 126.9 13.7 125 14.3 123.2 15.2 121.7 16.4 120.3 17.9 120.3 .8 114.9 .8 114.9 38.8 120.3 38.8 120.3 35 121.7 36.5 123.2 37.7 125 38.6 126.9 39.2 129.1 39.4 130.9 39.2 132.7 38.8 134.3 38.2 135.8 37.3 137.1 36.3 138.3 35 138.4 35 138.9 34.1 139.3 33.6 140.1 32 140.7 30.2 141.1 28.4 141.2 26.4"/>
        <rect class="cls-4" x="145.1" y="14.1" width="5.4" height="24.7"/>
        <rect class="cls-4" x="145.1" y="6" width="5.4" height="4.8"/>
        <polygon class="cls-2" points="176.4 31.5 176 29 174.6 26.6 173.4 25.6 171.8 24.6 169.6 23.9 166.9 23.4 164.1 22.9 162.4 22.3 161.6 21.4 161.4 20.5 161.6 19.6 162.4 18.9 163.8 18.4 165.9 18.2 167.9 18.4 169.5 18.7 170.9 19.2 172 19.7 174.6 16 173.3 15.2 171.7 14.5 170 14 168.1 13.6 165.9 13.5 163.6 13.6 161.5 14.1 159.8 14.7 158.4 15.6 157.3 16.7 156.1 19.2 155.9 20.7 156 22.1 157 24.6 159.3 26.6 161 27.4 163.3 28.1 166 28.6 168.6 29.2 170.1 29.9 170.7 30.8 170.9 31.8 170.7 32.7 169.8 33.6 168.2 34.4 165.6 34.6 163.1 34.4 161.1 33.9 159.6 33.2 158.3 32.4 157.3 31.5 154.5 35.3 156 36.5 158.8 38.1 160.8 38.7 163.2 39.2 166 39.4 168.1 39.2 170.1 38.8 171.9 38.1 173.4 37.2 174.7 36.1 175.6 34.7 176.2 33.2 176.4 31.5"/>
      </g>
    </g>
  </g>
</svg>