<?xml version="1.0" encoding="utf-8"?>
<!-- Generator: Adobe Illustrator 28.0.0, SVG Export Plug-In . SVG Version: 6.00 Build 0)  -->
<svg version="1.1" id="Capa_1" xmlns="http://www.w3.org/2000/svg" xmlns:xlink="http://www.w3.org/1999/xlink" x="0px" y="0px"
	 viewBox="0 0 186.1 40.2" style="enable-background:new 0 0 186.1 40.2;" xml:space="preserve">
<style type="text/css">
	.st0{fill:#FFFFFF;}
</style>
<g transform="translate(-3575 205.5)">
	<g transform="translate(3575 -205.5)">
		<path class="st0" d="M13.1,21.1l-0.6,0.2l1.5,2.9l0.6-0.2L13.1,21.1"/>
		<path class="st0" d="M11.7,21.6l-0.6,0.2l1.5,2.9l0.6-0.2L11.7,21.6"/>
		<path class="st0" d="M14.3,20.6l-0.6,0.2l1.5,2.7l0.6-0.2L14.3,20.6"/>
		<path class="st0" d="M18,36.7c-0.2,0.1-0.5,0.1-0.7,0.1c-0.2,0-0.5-0.1-0.7-0.1c-0.6-0.2-1-0.7-1.2-1.2l-11.9-22
			c-0.1-0.2-0.2-0.5-0.2-0.7c0-0.3,0-0.5,0.1-0.7c0.1-0.2,0.2-0.4,0.4-0.6C3.9,11.2,4,11,4.2,10.9l15.9-4.5l1.4,2.5L6.6,13.4l3,5.6
			l14.9-5l1.5,2.5l-11.1,3.9l1.5,2.7L27.4,19l2.1-0.7l10.2-3.9l2.9,4.7l-10.1,4.2l-2.1,0.9l-12.1,5l-2.4-4.4l-2.6,1l3,5.5
			c0.1,0.2,0.4,0.5,0.5,0.7c0.2,0.2,0.5,0.4,0.7,0.5c0.2,0.1,0.5,0.1,0.7,0.1c0.3,0,0.5,0,0.7-0.1L31.9,27l1.5,2.7L18,36.7
			 M23.8,8.3l-1.4-2.5l12.9-3.6h0.5c0.2,0,0.4,0.1,0.6,0.2c0.2,0.1,0.4,0.2,0.5,0.4l0.5,0.5l10.4,17.4c0.1,0.2,0.2,0.4,0.2,0.6
			s0.1,0.4,0,0.6c0,0.1-0.1,0.4-0.1,0.5l-0.4,0.4l-12.2,5.7L34,26l10.7-4.7c0.1-0.1,0.2-0.1,0.4-0.4c0.1-0.1,0.1-0.3,0.1-0.5v-0.6
			c0-0.2-0.1-0.5-0.2-0.6l-4.6-7.7l-12.2,4.2l-1.5-2.5l12.2-4.1l-2.7-4.5L23.8,8.3 M2.7,8.3C2.2,8.4,1.7,8.7,1.2,9.1
			c-0.4,0.4-0.8,0.8-1,1.4C0,11,0,11.7,0,12.3c0.1,0.7,0.3,1.4,0.6,2l11.9,22.5c0.4,0.7,0.8,1.3,1.4,1.9c0.5,0.5,1.2,0.9,1.9,1.1
			c0.6,0.2,1.3,0.4,2,0.4c0.6,0,1.3-0.1,1.9-0.4l29.6-14.3c0.4-0.2,0.8-0.5,1-0.9c0.2-0.4,0.4-0.8,0.4-1.2c0-0.5,0-1-0.1-1.5
			c-0.1-0.6-0.4-1.1-0.7-1.6L39.3,3C39,2.5,38.6,2,38.2,1.6c-0.4-0.4-0.9-0.7-1.4-1c-0.5-0.2-1-0.4-1.5-0.5C34.9,0,34.4,0,34,0.1
			L2.7,8.3z"/>
	</g>
	<path class="st0" d="M3645.3-193.4l-0.9,4.4h8.8l-0.9,4.4h-8.7l-1.5,6.8h-5.6l4-19.9h15.6l-0.9,4.4H3645.3z"/>
	<path class="st0" d="M3671.3-184.3H3660c0.1,1.6,1.4,2.5,3.5,2.5c0.7,0,1.4-0.1,2-0.4c0.6-0.2,1.2-0.5,1.7-1l2.2,3.4
		c-1.9,1.4-4.2,2.1-6.6,2c-1.5,0-2.9-0.3-4.2-0.9c-1.2-0.5-2.2-1.4-2.9-2.5c-0.6-1.1-1-2.4-1-3.7c0-1.6,0.4-3.2,1.1-4.6
		c0.7-1.4,1.9-2.5,3.2-3.2c1.5-0.7,3.2-1.1,4.9-1.1c1.4,0,2.7,0.3,4,0.9c1.1,0.5,2,1.3,2.6,2.4c0.7,1.1,1,2.3,0.9,3.6
		C3671.5-186.1,3671.5-185.2,3671.3-184.3z M3661.6-189c-0.6,0.5-1,1.1-1.2,1.9h6.3c0-0.7-0.3-1.4-0.9-1.9
		C3664.6-190,3662.8-190,3661.6-189L3661.6-189z"/>
	<path class="st0" d="M3686.3-184.3h-11.2c0.2,1.6,1.4,2.5,3.5,2.5c0.7,0,1.4-0.1,2-0.4c0.6-0.2,1.2-0.5,1.7-1l2.2,3.4
		c-1.9,1.4-4.2,2.1-6.6,2c-1.5,0-3-0.3-4.4-0.9c-1.2-0.5-2.2-1.4-2.9-2.5c-0.7-1.1-1.1-2.4-1-3.7c0-1.6,0.4-3.2,1.1-4.6
		c0.7-1.4,1.9-2.5,3.2-3.2c1.5-0.8,3.2-1.2,4.9-1.1c1.4,0,2.7,0.3,4,0.9c1.1,0.5,2,1.3,2.6,2.4c0.7,1.1,1,2.3,0.9,3.6
		C3686.7-186.1,3686.6-185.1,3686.3-184.3z M3676.6-189c-0.6,0.5-1,1.1-1.2,1.9h6.3c0-0.7-0.3-1.4-0.7-1.9c-0.6-0.5-1.3-0.7-2.1-0.7
		C3678.1-189.7,3677.3-189.5,3676.6-189z"/>
	<path class="st0" d="M3704.1-192.1c1,1,1.6,2.4,1.5,3.9c0,0.6-0.1,1.3-0.2,1.9l-1.6,8.6h-5.3l1.6-8v-1.1c0-1.4-0.7-2-2.1-2
		c-0.9,0-1.7,0.3-2.4,0.9c-0.7,0.7-1.1,1.6-1.2,2.6l-1.5,7.6h-5.4l3.1-15.4h5.1l-0.4,1.6c0.6-0.6,1.4-1.1,2.2-1.5
		c0.8-0.3,1.7-0.5,2.6-0.5C3701.6-193.6,3703-193.1,3704.1-192.1z"/>
	<path class="st0" d="M3710.1-193.2h5.3l-3.1,15.4h-5.4L3710.1-193.2z"/>
	<path class="st0" d="M3720.2-178.4c-1.2-0.5-2.2-1.4-2.9-2.5c-0.7-1.1-1.1-2.4-1-3.7c0-3.2,1.7-6.2,4.6-7.7
		c1.5-0.8,3.2-1.2,4.9-1.1c1.6,0,3.1,0.4,4.5,1.1c1.2,0.7,2.2,1.8,2.7,3.1l-4.5,2.1c-0.4-1.3-1.6-2.1-3-2c-1.1,0-2.1,0.4-2.7,1.2
		c-0.7,0.9-1.1,2-1.1,3.1c0,0.8,0.2,1.5,0.7,2.1c0.6,0.6,1.4,0.9,2.2,0.7c0.7,0,1.3-0.1,1.9-0.5c0.6-0.3,1.1-0.9,1.4-1.5l3.9,2.4
		c-0.7,1.2-1.8,2.2-3.1,2.9c-1.4,0.8-2.9,1.1-4.5,1C3722.8-177.6,3721.5-177.9,3720.2-178.4z"/>
	<path class="st0" d="M3735.9-193.2h5.4l-3,15.4h-5.3L3735.9-193.2z"/>
	<path class="st0" d="M3761.1-193.2l-3.1,15.4h-5.1l0.4-1.4c-1.2,1.1-2.8,1.7-4.5,1.7c-1.1,0-2.3-0.3-3.2-0.9
		c-1-0.6-1.8-1.5-2.4-2.5c-0.7-1.1-1-2.4-0.9-3.7c0-1.6,0.4-3.1,1.1-4.5c0.7-1.3,1.7-2.4,3-3.2c1.3-0.7,2.7-1.1,4.2-1.1
		c1.8-0.2,3.6,0.6,4.7,2.1l0.4-1.9L3761.1-193.2z M3753.2-183.1c0.8-0.9,1.1-2,1-3.1c0-0.8-0.3-1.5-0.8-2.1
		c-0.6-0.5-1.3-0.8-2.1-0.7c-1,0-1.9,0.4-2.6,1.1c-0.8,0.9-1.1,2-1,3.1c-0.1,1.5,1,2.7,2.4,2.9c0,0,0,0,0,0h0.5
		C3751.7-182,3752.6-182.4,3753.2-183.1L3753.2-183.1z"/>
</g>
</svg>
