<svg xmlns="http://www.w3.org/2000/svg" width="186.062" height="40.158" viewBox="0 0 186.062 40.158"><g transform="translate(-3575 205.5)"><g transform="translate(3575 -205.5)"><path d="M10.622,17,10,17.249l1.493,2.862.622-.249L10.622,17" transform="translate(2.442 4.121)" fill="#1226aa"/><path d="M9.522,17.4l-.622.249,1.493,2.862.622-.249L9.522,17.4" transform="translate(2.174 4.219)" fill="#1226aa"/><path d="M11.622,16.6,11,16.849l1.493,2.737.622-.249L11.622,16.6" transform="translate(2.687 4.023)" fill="#1226aa"/><path d="M18.042,36.7a1.578,1.578,0,0,1-.747.124c-.249,0-.5-.124-.747-.124A2.288,2.288,0,0,1,15.3,35.455L3.359,13.432a1.768,1.768,0,0,1-.249-.747,1.578,1.578,0,0,1,.124-.747c.124-.249.249-.373.373-.622.249-.124.373-.249.622-.373L20.157,6.464l1.369,2.488L6.595,13.432l2.986,5.6,14.931-4.977L26,16.542,14.931,20.4l1.493,2.737,10.949-4.106,2.115-.747,10.2-3.857,2.862,4.728-10.078,4.23-2.115.871L18.29,29.234l-2.364-4.355-2.613,1L16.3,31.349c.124.249.373.5.5.747a2.6,2.6,0,0,0,.747.5,1.578,1.578,0,0,0,.747.124,1.578,1.578,0,0,0,.747-.124l12.816-5.6,1.493,2.737L18.042,36.7M23.765,8.33,22.4,5.842l12.94-3.608h.5c.249,0,.373.124.622.249a1.718,1.718,0,0,1,.5.373l.5.5L47.9,20.773c.124.249.249.373.249.622s.124.373,0,.622c0,.124-.124.373-.124.5l-.373.373L35.461,28.612,33.968,26l10.7-4.728c.124-.124.249-.124.373-.373a.748.748,0,0,0,.124-.5v-.622a.95.95,0,0,0-.249-.622l-4.6-7.714L28.12,15.671l-1.493-2.488L38.821,9.077,36.083,4.6,23.765,8.33m-21.028,0a3.391,3.391,0,0,0-1.493.747,3.529,3.529,0,0,0-1,1.369A4.836,4.836,0,0,0,0,12.312,6.145,6.145,0,0,0,.622,14.3L12.567,36.824a7.249,7.249,0,0,0,1.369,1.866A4.685,4.685,0,0,0,15.8,39.81a5.636,5.636,0,0,0,1.991.373,4.545,4.545,0,0,0,1.866-.373L49.272,25.5a2.213,2.213,0,0,0,1-.871,2.4,2.4,0,0,0,.373-1.244,6.058,6.058,0,0,0-.124-1.493,3.856,3.856,0,0,0-.747-1.618L39.318,2.98A13.223,13.223,0,0,0,38.2,1.611a5.525,5.525,0,0,0-1.369-1,5.268,5.268,0,0,0-1.493-.5,2.556,2.556,0,0,0-1.369,0Z" transform="translate(0 -0.025)" fill="#1226aa"/></g><path d="M8.71,4.355,7.839,8.71h8.834L15.8,13.065H7.092L5.6,19.908H0L3.982,0H19.535l-.871,4.355Z" transform="translate(3636.635 -197.705)" fill="#1226aa"/><path d="M31.149,12.681H19.826c.124,1.618,1.369,2.488,3.484,2.488A5.635,5.635,0,0,0,25.3,14.8a4.882,4.882,0,0,0,1.742-1l2.24,3.359a10.349,10.349,0,0,1-6.595,1.991,9.92,9.92,0,0,1-4.23-.871A6.841,6.841,0,0,1,15.6,15.791a7.6,7.6,0,0,1-1-3.733,10.054,10.054,0,0,1,1.12-4.6A8.1,8.1,0,0,1,18.955,4.22,10.7,10.7,0,0,1,23.807,3.1a8.848,8.848,0,0,1,3.982.871A6.019,6.019,0,0,1,30.4,6.335a6.225,6.225,0,0,1,.871,3.608A9.384,9.384,0,0,1,31.149,12.681ZM21.443,7.953A3.823,3.823,0,0,0,20.2,9.819h6.346a2.4,2.4,0,0,0-.871-1.866,3.37,3.37,0,0,0-4.23,0Z" transform="translate(3640.161 -196.947)" fill="#1226aa"/><path d="M43.249,12.684H32.05c.249,1.618,1.369,2.488,3.484,2.488a5.635,5.635,0,0,0,1.991-.373,4.882,4.882,0,0,0,1.742-1l2.24,3.359a10.349,10.349,0,0,1-6.595,1.991,10.482,10.482,0,0,1-4.355-.871A6.841,6.841,0,0,1,27.7,15.8a6.48,6.48,0,0,1-1-3.733,10.054,10.054,0,0,1,1.12-4.6,8.1,8.1,0,0,1,3.235-3.235A9.308,9.308,0,0,1,35.907,3.1a8.848,8.848,0,0,1,3.982.871A6.019,6.019,0,0,1,42.5,6.339a6.225,6.225,0,0,1,.871,3.608A4.921,4.921,0,0,1,43.249,12.684ZM33.543,7.956A3.823,3.823,0,0,0,32.3,9.823h6.346A2.532,2.532,0,0,0,37.9,7.956a3.379,3.379,0,0,0-2.115-.747A3.727,3.727,0,0,0,33.543,7.956Z" transform="translate(3643.082 -196.951)" fill="#1226aa"/><path d="M57.573,4.793A4.888,4.888,0,0,1,59.066,8.65a9.6,9.6,0,0,1-.249,1.866L57.2,19.1h-5.35l1.618-7.963v-1.12c0-1.369-.747-1.991-2.115-1.991a3.284,3.284,0,0,0-2.364.871,5.122,5.122,0,0,0-1.244,2.613L46.25,19.1H40.9L44.011,3.673h5.1l-.373,1.618A7.061,7.061,0,0,1,50.978,3.8a9.692,9.692,0,0,1,2.613-.5A6.1,6.1,0,0,1,57.573,4.793Z" transform="translate(3646.508 -196.899)" fill="#1226aa"/><path d="M59.811,3.6h5.35L62.05,19.029H56.7Z" transform="translate(3650.338 -196.825)" fill="#1226aa"/><path d="M68.057,18.459A6.841,6.841,0,0,1,65.2,15.971a6.48,6.48,0,0,1-1-3.733,8.658,8.658,0,0,1,4.6-7.714A9.594,9.594,0,0,1,73.656,3.4a9.2,9.2,0,0,1,4.479,1.12,6.073,6.073,0,0,1,2.737,3.111L76.394,9.749a2.856,2.856,0,0,0-2.986-1.991A3.529,3.529,0,0,0,70.67,9a4.779,4.779,0,0,0-1.12,3.111,3.139,3.139,0,0,0,.747,2.115,2.508,2.508,0,0,0,2.24.747,3.24,3.24,0,0,0,1.866-.5,3.166,3.166,0,0,0,1.369-1.493l3.857,2.364a7.641,7.641,0,0,1-3.111,2.862,8.164,8.164,0,0,1-4.479,1A9.735,9.735,0,0,1,68.057,18.459Z" transform="translate(3652.134 -196.878)" fill="#1226aa"/><path d="M80.586,3.6h5.35L82.95,19.029H77.6Z" transform="translate(3655.342 -196.825)" fill="#1226aa"/><path d="M103.893,3.627l-3.111,15.429h-5.1l.373-1.369a6.751,6.751,0,0,1-4.479,1.742,6.028,6.028,0,0,1-3.235-.871,6.47,6.47,0,0,1-2.364-2.488,6.625,6.625,0,0,1-.871-3.733,9.2,9.2,0,0,1,1.12-4.479,9.318,9.318,0,0,1,2.986-3.235,8.275,8.275,0,0,1,4.23-1.12,5.354,5.354,0,0,1,4.728,2.115l.373-1.866ZM96.054,13.705a4.1,4.1,0,0,0,1-3.111A3.379,3.379,0,0,0,96.3,8.48a2.786,2.786,0,0,0-2.115-.747,3.389,3.389,0,0,0-2.613,1.12,4.1,4.1,0,0,0-1,3.111,2.66,2.66,0,0,0,2.489,2.862h.5a2.934,2.934,0,0,0,2.488-1.12Z" transform="translate(3657.169 -196.852)" fill="#1226aa"/></g></svg>